<?xml version="1.0" encoding="UTF-8"?>
<!DOCTYPE svg PUBLIC "-//W3C//DTD SVG 1.1//EN" "http://www.w3.org/Graphics/SVG/1.1/DTD/svg11.dtd">
<!-- Creator: CorelDRAW 2020 (64-Bit) -->
<svg xmlns="http://www.w3.org/2000/svg" xml:space="preserve" width="8.5845mm" height="6.8678mm" version="1.1" style="shape-rendering:geometricPrecision; text-rendering:geometricPrecision; image-rendering:optimizeQuality; fill-rule:evenodd; clip-rule:evenodd"
viewBox="0 0 58.13 46.51"
 xmlns:xlink="http://www.w3.org/1999/xlink"
 xmlns:xodm="http://www.corel.com/coreldraw/odm/2003">
 <defs>
  <style type="text/css">
   <![CDATA[
    .fil0 {fill:white;fill-rule:nonzero}
   ]]>
  </style>
 </defs>
 <g id="Livello_x0020_1">
  <metadata id="CorelCorpID_0Corel-Layer"/>
  <path class="fil0" d="M53.77 0l-49.41 0c-2.41,0 -4.36,1.95 -4.36,4.36l0 29.07c0,2.41 1.95,4.36 4.36,4.36l21.8 0 0 2.91 -15.99 0c-0.8,0 -1.45,0.65 -1.45,1.45l0 2.91c0,0.8 0.65,1.45 1.45,1.45l37.79 0c0.8,0 1.45,-0.65 1.45,-1.45l0 -2.91c0,-0.8 -0.65,-1.45 -1.45,-1.45l-15.99 0 0 -2.91 21.8 0c2.41,0 4.36,-1.95 4.36,-4.36l0 -29.07c0,-2.41 -1.95,-4.36 -4.36,-4.36zm-1.15 32.04l-46.81 -0 0 -26.71 46.51 0 0.3 26.71z"/>
 </g>
</svg>
