<?xml version="1.0" encoding="UTF-8"?>
<!DOCTYPE svg PUBLIC "-//W3C//DTD SVG 1.1//EN" "http://www.w3.org/Graphics/SVG/1.1/DTD/svg11.dtd">
<!-- Creator: CorelDRAW 2020 (64-Bit) -->
<svg xmlns="http://www.w3.org/2000/svg" xml:space="preserve" width="329.393" height="47.564" version="1.1" style="shape-rendering:geometricPrecision; text-rendering:geometricPrecision; image-rendering:optimizeQuality; fill-rule:evenodd; clip-rule:evenodd"
viewBox="0 0 717.97 103.67"
 xmlns:xlink="http://www.w3.org/1999/xlink"
 xmlns:xodm="http://www.corel.com/coreldraw/odm/2003">
 <defs>
  <style type="text/css">
   <![CDATA[
    .fil1 {fill:white}
    .fil0 {fill:white;fill-rule:nonzero}
   ]]>
  </style>
 </defs>
 <g id="Livello_x0020_1">
  <metadata id="CorelCorpID_0Corel-Layer"/>
  <path class="fil0" d="M51.62 0.44c-28.46,0 -51.62,23.15 -51.62,51.62 0,28.46 23.16,51.61 51.62,51.61 28.46,0 51.62,-23.15 51.62,-51.61 0,-28.46 -23.15,-51.62 -51.62,-51.62zm0 84.8c-18.29,0 -33.18,-14.9 -33.18,-33.18 0,-18.29 14.89,-33.18 33.18,-33.18 18.29,0 33.18,14.9 33.18,33.18 0,18.29 -14.9,33.18 -33.18,33.18z"/>
  <path class="fil0" d="M126.09 103.67l0.29 -0.29 -0.29 0 0 0.29zm103.23 -0.29l-0.15 0 0.15 0.29 0 -0.29zm0 -103.38l-23.15 0 -28.32 36.77 -28.31 -36.77 -23.3 0 39.96 51.84 -39.67 51.54 23.3 0 28.17 -36.48 28.17 36.48 23.3 0 -39.82 -51.54 39.97 -51.84 -0.29 0z"/>
  <path class="fil0" d="M461.47 43.36c2.8,-4.28 4.42,-9.44 4.42,-15.04 0,-15.34 -12.53,-27.87 -27.87,-27.87l-55 0 0 103.23 0 0 0 0 60.31 0c18.14,0 32.89,-14.75 32.89,-32.89 0,-11.5 -5.9,-21.53 -14.75,-27.43zm-60.02 -24.48l36.71 0c5.16,0 9.44,4.28 9.44,9.44 0,5.16 -4.27,9.44 -9.44,9.44l-36.71 0 0 -18.88zm41.88 66.36l-41.88 0 0 -29.05 41.88 0c7.96,0 14.45,6.49 14.45,14.45 0,7.96 -6.49,14.45 -14.45,14.45l0 0.15z"/>
  <path class="fil0" d="M567.39 0l-28.32 36.72 -28.31 -36.72 -23.3 0 39.97 51.76 0 0 2.51 3.1 0 48.37 18.43 0 0 -48.67 2.21 -2.8 0 0 39.97 -51.76 0 0 -23.15 0zm-80.08 103.67l0.3 -0.29 -0.3 0 0 0.29zm103.23 0l0 -0.29 -0.15 0 0.15 0.29z"/>
  <path class="fil1" d="M633.26 18.96l65.75 0 0 65.75 -65.75 0 0 -65.75zm65.75 84.71l18.96 0 0 -18.96 0 -65.75 0 -18.96 -18.96 0 -65.75 0 -18.96 0 0 18.96 0 65.75 0 18.96 18.96 0 65.75 0z"/>
  <path class="fil0" d="M347.65 85.24l-43.21 -84.8 -43.21 84.8 -9.44 18.43 20.65 0 64 0 20.65 0 -9.44 -18.43zm-65.77 0l22.56 -44.24 22.56 44.24 -45.12 0z"/>
 </g>
</svg>
