<?xml version="1.0" encoding="UTF-8"?>
<!DOCTYPE svg PUBLIC "-//W3C//DTD SVG 1.1//EN" "http://www.w3.org/Graphics/SVG/1.1/DTD/svg11.dtd">
<!-- Creator: CorelDRAW 2020 (64-Bit) -->
<svg xmlns="http://www.w3.org/2000/svg" xml:space="preserve" width="3.7999mm" height="6.5921mm" version="1.1" style="shape-rendering:geometricPrecision; text-rendering:geometricPrecision; image-rendering:optimizeQuality; fill-rule:evenodd; clip-rule:evenodd"
viewBox="0 0 22.44 38.93"
 xmlns:xlink="http://www.w3.org/1999/xlink"
 xmlns:xodm="http://www.corel.com/coreldraw/odm/2003">
 <defs>
  <style type="text/css">
   <![CDATA[
    .fil0 {fill:white;fill-rule:nonzero}
   ]]>
  </style>
 </defs>
 <g id="Livello_x0020_1">
  <metadata id="CorelCorpID_0Corel-Layer"/>
  <path class="fil0" d="M14.87 36.5l0 0c0,1.34 -1.09,2.43 -2.43,2.43l-2.43 0c-1.34,0 -2.43,-1.09 -2.43,-2.43l0 -2.7c-1.74,-0.2 -3.39,-0.79 -4.83,-1.74 -0.95,-0.62 -1.04,-1.99 -0.24,-2.8l2.66 -2.66c0.57,-0.57 1.42,-0.64 2.15,-0.31 0.48,0.22 1.01,0.34 1.56,0.34l4.98 0c0.71,0 1.28,-0.57 1.28,-1.28 0,-0.57 -0.38,-1.08 -0.93,-1.23l-7.61 -2.17c-3.38,-0.97 -6.08,-3.76 -6.53,-7.25 -0.62,-4.88 2.89,-9.04 7.5,-9.59l0 -2.67c0,-1.34 1.09,-2.43 2.43,-2.43l2.43 0c1.34,0 2.43,1.09 2.43,2.43l0 2.7c1.74,0.21 3.39,0.79 4.83,1.74 0.95,0.63 1.04,1.99 0.24,2.8l-2.66 2.66c-0.57,0.57 -1.42,0.64 -2.14,0.31 -0.49,-0.22 -1.02,-0.34 -1.55,-0.34 -0,0 -0.01,0 -0.01,0l-4.99 0c-0.71,0 -1.28,0.57 -1.28,1.28 0,0.57 0.38,1.08 0.93,1.23l7.61 2.18c3.38,0.97 6.08,3.76 6.53,7.25 0.62,4.88 -2.89,9.04 -7.5,9.59l0 2.67z"/>
 </g>
</svg>
