<?xml version="1.0" encoding="UTF-8"?>
<!DOCTYPE svg PUBLIC "-//W3C//DTD SVG 1.1//EN" "http://www.w3.org/Graphics/SVG/1.1/DTD/svg11.dtd">
<!-- Creator: CorelDRAW 2020 (64-Bit) -->
<svg xmlns="http://www.w3.org/2000/svg" xml:space="preserve" width="9.2189mm" height="9.2189mm" version="1.1" style="shape-rendering:geometricPrecision; text-rendering:geometricPrecision; image-rendering:optimizeQuality; fill-rule:evenodd; clip-rule:evenodd"
viewBox="0 0 47.22 47.22"
 xmlns:xlink="http://www.w3.org/1999/xlink"
 xmlns:xodm="http://www.corel.com/coreldraw/odm/2003">
 <defs>
  <style type="text/css">
   <![CDATA[
    .fil0 {fill:#DC0024}
    .fil1 {fill:white;fill-rule:nonzero}
   ]]>
  </style>
 </defs>
 <g id="Livello_x0020_1">
  <metadata id="CorelCorpID_0Corel-Layer"/>
  <circle class="fil0" cx="23.61" cy="23.61" r="23.61"/>
  <path class="fil1" d="M23.61 35.86c-2.46,0 -4.68,-0.53 -6.65,-1.59 -1.98,-1.06 -3.52,-2.52 -4.64,-4.38 -1.12,-1.86 -1.67,-3.95 -1.67,-6.28 0,-2.33 0.56,-4.42 1.67,-6.28 1.12,-1.86 2.66,-3.32 4.64,-4.38 1.97,-1.06 4.19,-1.59 6.65,-1.59 2.46,0 4.67,0.53 6.63,1.59 1.96,1.06 3.51,2.52 4.64,4.38 1.13,1.86 1.69,3.95 1.69,6.28 0,2.32 -0.56,4.42 -1.69,6.28 -1.13,1.86 -2.67,3.32 -4.64,4.38 -1.96,1.06 -4.17,1.59 -6.63,1.59zm0 -4.67c1.4,0 2.66,-0.32 3.79,-0.96 1.13,-0.64 2.01,-1.54 2.66,-2.69 0.64,-1.15 0.96,-2.46 0.96,-3.93 0,-1.47 -0.32,-2.78 -0.96,-3.93 -0.64,-1.15 -1.53,-2.05 -2.66,-2.69 -1.13,-0.64 -2.39,-0.97 -3.79,-0.97 -1.4,0 -2.66,0.32 -3.79,0.97 -1.13,0.64 -2.01,1.54 -2.66,2.69 -0.64,1.15 -0.96,2.46 -0.96,3.93 0,1.47 0.32,2.78 0.96,3.93 0.64,1.15 1.53,2.05 2.66,2.69 1.13,0.64 2.39,0.96 3.79,0.96z"/>
 </g>
</svg>
