<?xml version="1.0" encoding="UTF-8"?>
<!DOCTYPE svg PUBLIC "-//W3C//DTD SVG 1.1//EN" "http://www.w3.org/Graphics/SVG/1.1/DTD/svg11.dtd">
<!-- Creator: CorelDRAW 2020 (64-Bit) -->
<svg xmlns="http://www.w3.org/2000/svg" xml:space="preserve" width="11.2196mm" height="5.6094mm" version="1.1" style="shape-rendering:geometricPrecision; text-rendering:geometricPrecision; image-rendering:optimizeQuality; fill-rule:evenodd; clip-rule:evenodd"
viewBox="0 0 65.86 32.93"
 xmlns:xlink="http://www.w3.org/1999/xlink"
 xmlns:xodm="http://www.corel.com/coreldraw/odm/2003">
 <defs>
  <style type="text/css">
   <![CDATA[
    .fil0 {fill:white;fill-rule:nonzero}
   ]]>
  </style>
 </defs>
 <g id="Livello_x0020_1">
  <metadata id="CorelCorpID_0Corel-Layer"/>
  <path class="fil0" d="M49.4 0l-32.93 0c0,0 -0,0 -0,0 -9.09,0 -16.46,7.37 -16.46,16.46 0,9.09 7.37,16.46 16.46,16.46 4.42,0 8.66,-1.78 11.76,-4.94l9.42 -0c3.09,3.16 7.34,4.94 11.76,4.94 9.09,0 16.46,-7.37 16.46,-16.46 0,-9.09 -7.37,-16.46 -16.46,-16.46l0 0zm-23.88 17.7c0,0.68 -0.55,1.23 -1.24,1.23l-5.35 0 0 5.35c0,0.68 -0.55,1.24 -1.23,1.24l-2.47 0c-0.68,0 -1.23,-0.55 -1.23,-1.24l0 -5.35 -5.35 0c-0.68,0 -1.24,-0.55 -1.24,-1.24l0 -2.47c0,-0.68 0.55,-1.23 1.24,-1.23l5.35 0 0 -5.35c0,-0.68 0.55,-1.24 1.24,-1.24l2.47 0c0.68,0 1.24,0.55 1.24,1.24l0 5.35 5.35 0c0.68,0 1.24,0.55 1.24,1.24l0 2.47zm20.99 4.12c-2.27,0 -4.12,-1.84 -4.12,-4.12 0,-2.27 1.84,-4.12 4.12,-4.12 2.27,0 4.12,1.84 4.12,4.12 0,2.27 -1.84,4.12 -4.12,4.12zm1.71 -12.28c0,-2.27 1.84,-4.12 4.12,-4.12 2.27,0 4.12,1.84 4.12,4.12 0,6 -8.23,5.02 -8.23,0z"/>
 </g>
</svg>
